<svg id="Capa_1" data-name="Capa 1" xmlns="http://www.w3.org/2000/svg" viewBox="0 0 180 180"><defs><style>.cls-1{fill:#e62b27;}.cls-2{fill:#fff;}</style></defs><title>restaurants</title><path class="cls-1" d="M90,0A72,72,0,0,0,18,72c0,39.75,72,108,72,108s72-68.25,72-108A72,72,0,0,0,90,0Z"/><path class="cls-2" d="M127.13,31.35A4.15,4.15,0,0,0,120,34.28v78.83h8.3V88.22h8.3a4.15,4.15,0,0,0,4.15-4.15C140.79,45.46,127.69,31.91,127.13,31.35Zm1.22,48.58v-28c2,6.64,3.77,15.8,4.09,28h-4.09Z"/><path class="cls-2" d="M74.4,46.73V30.13h-8.3v16.6A8.27,8.27,0,0,1,62,53.87V30.13h-8.3V53.87a8.27,8.27,0,0,1-4.15-7.15V30.13h-8.3v16.6a16.59,16.59,0,0,0,12.45,16v50.37H62V62.74A16.59,16.59,0,0,0,74.4,46.73Z"/><path class="cls-2" d="M91,59.18a24.9,24.9,0,1,0,24.89,24.89A24.92,24.92,0,0,0,91,59.18Zm0,37.34S78.55,88.22,78.55,82A6.22,6.22,0,0,1,91,82a6.22,6.22,0,0,1,12.45,0C103.45,88.22,91,96.52,91,96.52Z"/></svg>