<?xml version="1.0" encoding="iso-8859-1"?>
<!-- Generator: Adobe Illustrator 19.0.0, SVG Export Plug-In . SVG Version: 6.00 Build 0)  -->
<svg version="1.1" id="Layer_1" xmlns="http://www.w3.org/2000/svg" xmlns:xlink="http://www.w3.org/1999/xlink" x="0px" y="0px"
	 viewBox="0 0 512 512" style="enable-background:new 0 0 512 512;" xml:space="preserve">
<polygon style="fill:#E6E6E6;" points="401.973,136.035 401.242,144.893 399.874,161.627 398.586,177.285 331.371,463.538 
	267.278,512 84.576,512 51.187,161.627 49.594,144.893 48.743,136.035 "/>
<polygon style="fill:#CCCCCC;" points="401.242,144.893 399.874,161.627 51.187,161.627 49.594,144.893 "/>
<polygon style="fill:#F7B239;" points="457.591,256.545 456.636,268.059 436.423,512 267.278,512 247.065,268.059 246.11,256.545 
	355.276,234.22 "/>
<polygon style="fill:#E09B2D;" points="457.591,256.545 355.276,234.22 246.11,256.545 267.278,512 296.615,512 291.013,268.059 
	456.636,268.059 "/>
<polygon style="fill:#CCCCCC;" points="472.919,216.198 455.003,216.198 444.697,177.285 258.991,177.285 248.685,216.198 
	230.782,216.198 224.197,256.545 479.505,256.545 "/>
<path style="fill:#F95428;" d="M450.873,337.69l-7.49,90.309h-58.661c-24.941,0-45.155-20.213-45.155-45.155
	c0-12.471,5.047-23.759,13.228-31.927c8.168-8.181,19.456-13.228,31.927-13.228H450.873z"/>
<path style="fill:#F7B239;" d="M412.702,108.424c0,10.638-4.064,20.333-10.731,27.611H48.743c-0.398-0.438-0.784-0.877-1.155-1.328
	c-5.963-7.105-9.575-16.282-9.575-26.283c0-21.369,16.375-38.886,37.266-40.719c-1.487-3.626-2.298-7.597-2.298-11.753
	c0-17.079,13.852-30.944,30.957-30.944c5.724,0,11.089,1.554,15.685,4.276c2.284,1.328,4.383,2.962,6.242,4.834
	c5.525-16.056,20.745-27.597,38.674-27.597c12.165,0,23.082,5.299,30.559,13.732C199.466,8.433,210.835,0,224.155,0
	c14.104,0,25.99,9.429,29.736,22.325c7.477-9.615,19.151-15.804,32.272-15.804c17.929,0,33.175,11.541,38.687,27.597
	c5.604-5.631,13.36-9.111,21.94-9.111c17.092,0,30.957,13.865,30.957,30.944c0,4.157-0.837,8.128-2.324,11.753
	C396.315,69.538,412.702,87.055,412.702,108.424z"/>
<g>
	<polygon style="fill:#F95428;" points="346.459,136.035 346.194,144.893 345.701,161.627 345.236,177.285 267.518,177.285 
		267.676,161.627 267.85,144.893 267.942,136.035 	"/>
	<polygon style="fill:#F95428;" points="206.679,512 135.362,512 106.37,161.627 104.987,144.893 104.257,136.035 182.774,136.035 
		183.33,144.893 184.407,161.627 	"/>
</g>
<polygon style="fill:#E54728;" points="104.258,136.035 135.36,512 165.464,512 134.36,136.035 "/>
<path style="fill:#E09B2D;" d="M110.394,51.755c0,4.303,0.85,8.42,2.391,12.165c-21.648,1.899-38.607,20.054-38.607,42.18
	c0,11.023,4.223,21.063,11.116,28.607H47.589c-5.963-7.105-9.575-16.282-9.575-26.283c0-21.369,16.375-38.886,37.266-40.719
	c-1.487-3.626-2.298-7.597-2.298-11.753c0-17.079,13.852-30.944,30.957-30.944c5.724,0,11.089,1.554,15.685,4.276
	C113.912,35.075,110.394,43.003,110.394,51.755z"/>
<polygon style="fill:#CCCCCC;" points="104.258,136.035 135.362,512 84.576,512 48.346,136.035 48.744,136.035 "/>
<g>
	<polygon style="fill:#E54728;" points="183.33,144.893 184.407,161.627 106.37,161.627 104.987,144.893 	"/>
	<polygon style="fill:#E54728;" points="346.194,144.893 345.701,161.627 267.676,161.627 267.85,144.893 	"/>
</g>
<path style="fill:#E6E6E6;" d="M409.855,152.769H40.862c-4.62,0-8.367-3.747-8.367-8.367l0,0c0-4.62,3.747-8.367,8.367-8.367
	h368.993c4.62,0,8.367,3.747,8.367,8.367l0,0C418.222,149.022,414.475,152.769,409.855,152.769z"/>
<polygon style="fill:#B3B3B3;" points="258.991,177.285 248.685,216.198 230.782,216.198 224.197,256.545 275.832,256.545 
	280.68,216.198 293.96,216.198 298.33,177.285 "/>
<g>
</g>
<g>
</g>
<g>
</g>
<g>
</g>
<g>
</g>
<g>
</g>
<g>
</g>
<g>
</g>
<g>
</g>
<g>
</g>
<g>
</g>
<g>
</g>
<g>
</g>
<g>
</g>
<g>
</g>
</svg>
